<?xml version="1.0" standalone="no"?>
<!DOCTYPE svg PUBLIC "-//W3C//DTD SVG 20010904//EN"
 "http://www.w3.org/TR/2001/REC-SVG-20010904/DTD/svg10.dtd">
<svg version="1.0" xmlns="http://www.w3.org/2000/svg"
 width="144.000000pt" height="144.000000pt" viewBox="0 0 144.000000 144.000000"
 preserveAspectRatio="xMidYMid meet">
<metadata>
Created by potrace 1.10, written by Peter Selinger 2001-2011
</metadata>
<g transform="translate(0.000000,144.000000) scale(0.100000,-0.100000)"
fill="#bec6cc" stroke="none">
<path d="M938 1365 c-23 -25 -49 -56 -57 -70 -15 -23 -136 -176 -307 -389
l-80 -101 -195 -5 c-191 -5 -195 -5 -247 -34 -41 -23 -52 -34 -52 -54 0 -27
16 -43 70 -69 28 -14 75 -18 229 -23 l195 -5 80 -101 c171 -213 292 -366 307
-389 8 -14 34 -45 57 -70 39 -43 44 -45 94 -45 81 0 87 7 59 77 -22 57 -35 91
-66 173 -32 87 -45 119 -89 230 -25 63 -42 118 -38 122 4 4 68 8 142 9 121 1
136 -1 147 -17 6 -11 36 -55 65 -99 l53 -80 68 -3 c42 -2 67 1 67 8 0 5 -6 10
-14 10 -8 0 -17 12 -21 28 -3 15 -12 41 -19 57 -69 160 -73 177 -49 242 66
182 79 213 91 213 6 0 12 5 12 10 0 7 -25 10 -67 8 l-68 -3 -53 -80 c-29 -44
-59 -89 -66 -99 -11 -17 -24 -19 -147 -17 -73 1 -137 5 -141 9 -4 4 13 59 38
122 25 63 52 132 60 153 8 20 21 56 30 80 9 23 22 58 29 77 7 19 23 59 35 88
29 73 24 82 -50 82 -60 0 -62 -1 -102 -45z"/>
</g>
</svg>
