<?xml version="1.0" standalone="no"?>
<!DOCTYPE svg PUBLIC "-//W3C//DTD SVG 20010904//EN"
 "http://www.w3.org/TR/2001/REC-SVG-20010904/DTD/svg10.dtd">
<svg version="1.0" xmlns="http://www.w3.org/2000/svg"
 width="50.000000pt" height="50.000000pt" viewBox="0 0 50.000000 50.000000"
 preserveAspectRatio="xMidYMid meet">
<metadata>
Created by potrace 1.10, written by Peter Selinger 2001-2011
</metadata>
<g transform="translate(0.000000,50.000000) scale(0.050000,-0.050000)"
fill="#ffa500" stroke="none">
<path d="M862 973 c-37 -11 -119 -68 -182 -127 l-115 -106 -242 36 -243 37
-40 -43 c-61 -65 -77 -55 288 -190 l59 -22 -98 -99 c-65 -66 -114 -99 -148
-100 -61 0 -156 -73 -129 -98 10 -10 58 -25 107 -35 87 -16 91 -20 107 -107
29 -149 134 -141 134 10 0 48 22 84 99 160 l99 98 22 -59 c135 -365 125 -349
190 -288 l43 40 -37 244 -36 244 88 91 c191 198 210 366 34 314z"/>
</g>
</svg>
